PathFileType	4	(X/Y/Z)	C:/Users/beibeiliu/ov580/test_trc/capture2\sequence.38_training_dense_left.trc
DataRate	CameraRate	NumFrames	NumMarkers	Units	OrigDataRate	OrigDataStartFrame	OrigNumFrames
120	120	15	19	mm	120	1	400
Frame#	Time	ThumbCMC			ThumbMCP			ThumbIP			ThumbTip			IndexMCP			IndexPIP			IndexTip			MiddleMCP			MiddlePIP			MiddleTip			RingMCP			RingPIP			RingTip			PinkyMCP			PinkyPIP			PinkyTip			BackHand1			BackHand2			BackHand3	
		X0	Y0	Z0	X1	Y1	Z1	X2	Y2	Z2	X3	Y3	Z3	X4	Y4	Z4	X5	Y5	Z5	X6	Y6	Z6	X7	Y7	Z7	X8	Y8	Z8	X9	Y9	Z9	X10	Y10	Z10	X11	Y11	Z11	X12	Y12	Z12	X13	Y13	Z13	X14	Y14	Z14	X15	Y15	Z15	X16	Y16	Z16	X17	Y17	Z17	X18	Y18	Z18	
0	0	-183.282	-11.2871	28.7468	-164.843	12.7198	7.48964	-155.641	25.8697	-17.3267	-137.69	25.7345	-40.7454	-175.767	-42.6918	-37.8368	-175.005	-36.0183	-63.2468	-168.212	-28.5401	-92.4175	-156.725	-53.3612	-40.9888	-151.348	-53.2401	-67.3079	-144.601	-52.263	-94.7732	-134.159	-50.4036	-37.3747	-125.271	-45.6805	-57.5591	-115.595	-36.062	-80.9369	-108.357	-51.4262	-18.2751	-97.9625	-48.2377	-32.7389	-86.3525	-52.7713	-54.412	-144.391	-63.1888	13.5665	-148.792	-62.6091	48.4304	-175.932	-54.8434	25.0907	
1	0.00833333	-180.898	-12.755	27.8684	-165.607	12.0315	6.78626	-153.995	20.5779	-15.375	-138.837	25.3268	-38.8799	-174.836	-43.4443	-38.4414	-172.941	-37.2633	-66.4841	-166.439	-29.7959	-92.2831	-156.532	-53.9793	-42.7723	-151.947	-53.6198	-64.4301	-143.536	-52.2932	-94.4818	-129.461	-52.0122	-34.2786	-124.502	-42.5085	-57.7692	-113.269	-26.3199	-83.8541	-111.955	-50.7411	-15.0695	-95.9075	-48.9925	-37.4844	-85.5857	-54.0986	-53.0005	-141.552	-62.7483	18.2312	-148.85	-63.6505	46.1797	-175.376	-54.0409	23.9309	
2	0.0166667	-180.588	-12.1284	30.5619	-165.672	11.1732	10.5591	-154.247	24.0859	-18.0666	-141.631	25.6039	-34.0284	-178.905	-40.5863	-41.6324	-173.236	-36.9307	-63.4757	-171.822	-30.2564	-88.2739	-154.202	-54.1302	-38.6641	-150.811	-52.5208	-65.092	-146.149	-50.3548	-92.7587	-133.794	-49.4304	-32.6588	-121.757	-36.7366	-60.57	-111.232	-19.0269	-79.6209	-110.37	-51.3421	-15.8913	-97.174	-47.5886	-35.6549	-87.6269	-50.0512	-54.8401	-140.544	-63.1066	18.2159	-148.329	-61.4319	46.2969	-173.625	-53.6541	27.4469	
3	0.025	-181.845	-9.94537	25.6943	-164.083	11.1377	8.2771	-154.62	23.7213	-15.3825	-142.772	28.133	-33.0829	-176.152	-40.6838	-40.5097	-177.024	-35.0608	-66.7818	-167.299	-32.2495	-86.4807	-156.093	-52.1487	-37.4252	-149.803	-51.6458	-66.9673	-142.865	-49.8773	-92.9344	-133.112	-47.555	-35.2341	-120.512	-34.4349	-58.8603	-113.944	-16.5819	-74.5253	-114.917	-48.8743	-15.6563	-102.25	-47.2522	-36.9917	-88.9597	-51.4605	-55.1664	-141.301	-61.0339	15.2554	-144.613	-62.486	45.885	-174.593	-53.0214	24.3949	
4	0.0333333	-179.181	-11.9589	30.1564	-163.791	12.4819	6.52858	-156.089	26.8155	-14.4979	-141.853	30.0646	-35.6604	-179.398	-40.0928	-37.3343	-176.637	-36.6452	-61.7587	-172.721	-32.151	-86.7556	-157.984	-52.3913	-43.3544	-151.823	-49.449	-69.5569	-145.565	-48.8085	-91.8202	-128.349	-46.9258	-33.6077	-121.072	-30.9986	-59.8665	-110.856	-8.32773	-73.9032	-109.373	-49.8208	-16.8439	-104.078	-46.0898	-36.3886	-89.5023	-50.6388	-56.3331	-141.289	-62.6476	15.8355	-150.141	-61.3194	43.5414	-173.606	-52.0263	24.3383	
5	0.0416667	-178.675	-11.6567	25.843	-163.949	11.8227	7.11691	-153.333	23.883	-17.8112	-139.72	28.9162	-36.927	-179.808	-39.4197	-36.3478	-173.063	-36.542	-65.4554	-172.063	-32.7757	-86.6672	-153.36	-52.2012	-42.0411	-151.176	-50.183	-66.8219	-141.794	-49.2618	-92.605	-127.263	-45.9219	-33.8702	-117.44	-28.8031	-58.4932	-109.634	-7.26698	-70.3819	-111.748	-49.7032	-17.4575	-104.312	-45.5749	-34.8892	-89.2225	-47.6362	-56.1174	-144.38	-60.8062	18.5945	-147.443	-60.7799	45.7436	-176.456	-50.6317	25.0471	
6	0.05	-180.557	-10.6755	25.6134	-164.316	13.6698	5.36109	-152.224	23.0465	-13.5751	-137.948	24.9462	-34.8997	-175.158	-41.2508	-41.1352	-176.447	-36.1702	-61.4908	-169.782	-34.7675	-86.5258	-151.667	-52.8196	-42.3568	-150.742	-50.5391	-64.311	-142.977	-50.9489	-94.3321	-131.728	-44.6283	-32.6561	-118.914	-28.4634	-56.1102	-113.157	-0.151962	-71.0227	-109.275	-49.0648	-17.438	-100.536	-44.7706	-39.9522	-90.0002	-47.2683	-58.5347	-144.064	-58.3993	18.8481	-145.578	-61.0523	47.706	-173.56	-53.5249	26.8918	
7	0.0583333	-181.373	-11.2637	30.0322	-163.964	12.7974	7.76043	-151.761	23.4391	-19.5263	-137.053	25.214	-37.6804	-176.326	-42.4145	-39.8843	-176.08	-36.5053	-66.1805	-168.682	-36.7129	-86.4604	-152.829	-52.8187	-42.1043	-148.596	-51.2205	-64.9393	-144.116	-49.4923	-97.2466	-131.643	-44.5413	-34.0198	-116.76	-26.3146	-55.362	-112.749	0.93969	-64.4908	-109.623	-49.646	-20.1997	-103.437	-44.55	-37.1617	-91.2344	-46.0044	-62.1539	-138.7	-60.5203	19.8351	-144.985	-60.9027	46.0247	-176.161	-53.8849	25.7422	
8	0.0666667	-179.286	-11.52	27.1608	-160.805	10.3274	4.80677	-148.784	17.9843	-17.3581	-132.795	18.684	-39.8602	-176.551	-43.2786	-37.5028	-174.533	-38.7171	-66.7356	-172.228	-35.5702	-91.2976	-153.679	-53.6347	-38.6717	-144.713	-52.7125	-67.9746	-140.39	-49.7592	-94.1234	-129.59	-45.271	-35.2576	-117.856	-25.3796	-54.7019	-118.107	7.16705	-59.3121	-110.896	-49.8209	-15.7503	-104.908	-45.1284	-36.4132	-92.8577	-46.9482	-60.44	-141.032	-59.7668	17.9587	-144.779	-60.3629	49.2885	-173.954	-52.544	27.1583	
9	0.075	-177.951	-13.0353	28.752	-161.545	13.0872	3.92883	-150.702	21.8211	-17.914	-133.181	18.6506	-36.1009	-177.207	-43.0432	-39.0251	-172.604	-40.6699	-62.0481	-168.75	-38.5224	-88.4257	-154.382	-53.9287	-41.4443	-148.415	-51.9848	-66.8483	-139.812	-47.9246	-93.0318	-132.718	-45.4125	-37.0048	-117.325	-26.1026	-53.9104	-118.69	7.47796	-51.8767	-115.857	-48.56	-16.2444	-104.203	-44.2439	-39.3438	-96.4493	-44.6753	-60.6331	-138.848	-61.4913	18.9393	-145.099	-61.6626	45.1252	-175.311	-52.9357	27.5328	
10	0.0833333	-179.281	-12.4459	26.0472	-160.423	10.6772	5.14929	-148.116	19.9932	-18.5866	-133.476	21.2593	-39.9198	-174.801	-43.6995	-39.7901	-175.01	-39.6108	-63.4092	-167.595	-38.0748	-90.5529	-152.828	-54.6866	-42.713	-147.21	-51.6165	-65.6389	-135.38	-47.9769	-92.0548	-127.205	-47.2457	-33.545	-118.344	-24.999	-52.7121	-121.702	9.35936	-44.6747	-116.291	-48.5799	-16.6889	-106.326	-44.3045	-39.2444	-98.2392	-42.9342	-60.5083	-139.626	-61.9671	19.4318	-145.959	-60.8986	44.2195	-173.996	-54.7359	26.6289	
11	0.0916667	-177.152	-13.8931	29.766	-162.037	12.7736	6.09424	-149.518	20.9421	-17.9177	-134.163	19.1924	-36.4654	-176.508	-43.7357	-40.0994	-174.863	-39.7375	-65.55	-168.397	-38.8441	-86.646	-153.078	-54.4348	-39.434	-144.288	-52.8292	-66.8519	-135.475	-47.5265	-95.5302	-129.226	-47.7227	-31.465	-121.924	-25.1024	-51.7801	-120.358	6.55693	-41.6425	-117.41	-48.457	-21.5942	-109.283	-42.8701	-37.1433	-96.9611	-41.4956	-62.0937	-140.374	-63.8164	17.8622	-144.954	-62.9257	46.9744	-176.23	-52.2785	24.7023	
12	0.1	-177.234	-15.2868	25.9269	-158.613	7.87788	7.18005	-148.66	21.3507	-17.1719	-135.113	21.8924	-37.8426	-177.502	-43.0609	-40.9377	-177.262	-38.6831	-64.3169	-170.498	-37.9074	-85.305	-154.642	-53.5187	-41.3933	-144.576	-51.3834	-67.8802	-135.657	-47.6568	-91.2589	-127.95	-48.5352	-32.3976	-123.064	-22.6832	-52.5381	-121.514	7.18139	-41.4798	-114.606	-48.862	-16.3456	-108.227	-42.438	-36.08	-100.005	-39.1641	-63.3607	-144.018	-60.5545	16.2247	-148.288	-61.4052	49.0631	-174.98	-52.5936	27.6604	
13	0.108333	-178.548	-12.0666	30.1091	-160.56	12.0375	5.44354	-148.205	20.6073	-18.7017	-131.872	19.9146	-37.8109	-173.9	-42.952	-36.9028	-174.739	-38.8845	-60.9763	-169.338	-36.3419	-88.7494	-153.035	-53.4482	-42.4527	-146.609	-49.271	-67.4199	-138.372	-44.9003	-90.9882	-129.896	-46.7075	-34.2738	-120.299	-26.4358	-51.2395	-119.521	5.8872	-46.2981	-117.612	-47.9434	-20.5186	-106.714	-40.1307	-40.7319	-101.34	-36.933	-62.3597	-143.283	-60.1437	16.8451	-148.968	-62.8103	46.7952	-176.483	-54.1369	29.6992	
14	0.116667	-180.658	-11.6106	29.2618	-162.439	12.098	9.03479	-149.295	21.8421	-15.8462	-132.24	18.1683	-34.8758	-173.411	-41.8532	-39.7952	-172.51	-37.2466	-62.3966	-168.512	-33.8662	-87.757	-154.643	-50.6381	-39.4295	-148.105	-46.7407	-66.0498	-136.228	-41.5062	-95.6982	-129.827	-45.4303	-33.0902	-118.841	-24.4788	-52.524	-117.426	4.63772	-52.2261	-112.107	-47.7372	-19.4969	-105.185	-41.1223	-35.5754	-95.7932	-36.3628	-62.8835	-140.254	-62.0668	20.3418	-148.641	-59.8984	46.2163	-174.427	-53.5789	27.1539	
